<svg width="24" height="24" viewBox="0 0 24 24" fill="none" xmlns="http://www.w3.org/2000/svg">
<g clip-path="url(#clip0_1_38)">
<path d="M0 5C0 2.23858 2.23858 0 5 0H19C21.7614 0 24 2.23858 24 5V19C24 21.7614 21.7614 24 19 24H5C2.23858 24 0 21.7614 0 19V5Z" fill="#1A8825"/>
<path d="M13.9365 4.95563C13.9265 3.85111 13.023 2.9638 11.9185 2.97377C10.814 2.98374 9.92667 3.88722 9.93664 4.99175L9.98186 10H5C3.89543 10 3 10.8954 3 12C3 13.1046 3.89543 14 5 14H10.018L10.063 18.9912C10.073 20.0957 10.9765 20.983 12.081 20.973C13.1855 20.9631 14.0729 20.0596 14.0629 18.9551L14.0181 14H19C20.1046 14 21 13.1046 21 12C21 10.8954 20.1046 10 19 10H13.982L13.9365 4.95563Z" fill="#ACEEBB"/>
</g>
<defs>
<clipPath id="clip0_1_38">
<rect width="24" height="24" fill="white"/>
</clipPath>
</defs>
</svg>
