<svg width="24" height="24" viewBox="0 0 24 24" fill="none" xmlns="http://www.w3.org/2000/svg">
<g clip-path="url(#clip0_1_39)">
<path d="M0 5C0 2.23858 2.23858 0 5 0H19C21.7614 0 24 2.23858 24 5V19C24 21.7614 21.7614 24 19 24H5C2.23858 24 0 21.7614 0 19V5Z" fill="#1A8188"/>
<path d="M4.80779 16.5885C4.84046 16.9438 4.96861 17.2948 5.198 17.6015C5.85964 18.486 7.11302 18.6666 7.9975 18.005L19.208 9.61897C20.0925 8.95733 20.2731 7.70395 19.6115 6.81947C18.9498 5.93499 17.6964 5.75434 16.812 6.41598L8.58059 12.5735L8.50272 10.8995C8.45139 9.79616 7.51532 8.94331 6.41194 8.99463C5.30856 9.04596 4.45571 9.98203 4.50704 11.0854L4.7435 16.1686C4.75024 16.3134 4.77221 16.4538 4.80779 16.5885Z" fill="#ACE6EE"/>
</g>
<defs>
<clipPath id="clip0_1_39">
<rect width="24" height="24" fill="white"/>
</clipPath>
</defs>
</svg>
