<svg width="24" height="24" viewBox="0 0 24 24" fill="none" xmlns="http://www.w3.org/2000/svg">
<g clip-path="url(#clip0_1_40)">
<path d="M0 5C0 2.23858 2.23858 0 5 0H19C21.7614 0 24 2.23858 24 5V19C24 21.7614 21.7614 24 19 24H5C2.23858 24 0 21.7614 0 19V5Z" fill="#881A1A"/>
<path d="M3 12C3 10.8954 3.89543 10 5 10H19C20.1046 10 21 10.8954 21 12C21 13.1046 20.1046 14 19 14H5C3.89543 14 3 13.1046 3 12Z" fill="#EEACAC"/>
</g>
<defs>
<clipPath id="clip0_1_40">
<rect width="24" height="24" fill="white"/>
</clipPath>
</defs>
</svg>
