<svg width="48" height="48" viewBox="0 0 48 48" fill="none" xmlns="http://www.w3.org/2000/svg">
<g clip-path="url(#clip0_18_383)">
<mask id="mask0_18_383" style="mask-type:luminance" maskUnits="userSpaceOnUse" x="0" y="0" width="48" height="48">
<path d="M48 0H0V48H48V0Z" fill="white"/>
</mask>
<g mask="url(#mask0_18_383)">
<path d="M31.0109 16.4387L47.1313 44.1909H34.5867L24.4247 27.8365L24 27.153L23.5753 27.8365L13.4133 44.1909H0.869541L16.8836 16.677L17.0221 16.439L17.0282 16.4285L17.1737 16.1785L24.001 4.44832L31.0055 16.4293L31.0109 16.4387Z" stroke="white"/>
<path d="M24 3.45599V28.1003L13.6913 44.6909H0L16.5899 16.1875L16.5834 16.177H16.5961L24 3.45599Z" fill="white"/>
<path d="M24 28.1003L38.8188 22.6237L34.3087 44.6909L24 28.1003Z" fill="white"/>
</g>
</g>
<defs>
<clipPath id="clip0_18_383">
<rect width="48" height="48" fill="white"/>
</clipPath>
</defs>
</svg>
