<svg width="299" height="251" viewBox="0 0 299 251" fill="none" xmlns="http://www.w3.org/2000/svg">
<path fill-rule="evenodd" clip-rule="evenodd" d="M147.271 58.753C116.5 31.6189 87.2245 19.2965 73.4372 30.2753C62.1893 39.232 63.7476 61.7082 75.3211 89.2665C46.5534 97.3797 28 110.162 28 124.54C28 139.278 47.4932 152.339 77.4989 160.414C66.1976 189.359 65.1468 212.799 77.011 221.543C91.1987 231.999 119.994 218.592 149.729 190.327C180.5 217.461 209.775 229.784 223.563 218.805C234.811 209.848 233.252 187.372 221.679 159.814C250.447 151.7 269 138.919 269 124.54C269 109.802 249.507 96.7413 219.501 88.6666C230.803 59.7214 231.853 36.2809 219.989 27.5372C205.801 17.0811 177.007 30.4885 147.271 58.753ZM220.381 46.0573C219.827 39.2774 217.694 35.694 215.286 33.919C212.877 32.1439 208.823 31.1678 202.183 32.6463C195.567 34.1195 187.39 37.8502 178.142 43.9443C170.204 49.176 161.749 55.9688 153.151 64.1024C158.632 69.2424 164.132 74.8314 169.573 80.8219C184.807 81.8118 199.054 83.8561 211.739 86.7429C213.722 81.7463 215.382 76.9362 216.707 72.3655C219.79 61.7286 220.932 52.8129 220.381 46.0573ZM158.234 80.2881C154.646 76.5446 151.052 72.9934 147.474 69.6476C144.129 73.0191 140.775 76.5842 137.433 80.33C141.078 80.2078 144.769 80.1453 148.5 80.1453C151.777 80.1453 155.023 80.1935 158.234 80.2881ZM141.595 64.3183C132.699 56.5115 123.996 50.0392 115.868 45.1078C106.399 39.3633 98.0879 35.9407 91.4214 34.7157C84.731 33.4863 80.7161 34.6132 78.3756 36.4769C76.035 38.3407 74.0378 42.0012 73.7378 48.7971C73.439 55.5686 74.9135 64.4353 78.3919 74.9497C79.6953 78.8896 81.2603 83.002 83.0773 87.2519C96.0331 84.1602 110.702 81.96 126.445 80.8873C131.452 74.9803 136.524 69.4425 141.595 64.3183ZM218.423 152.491C222.88 151.265 227.072 149.928 230.966 148.493C241.358 144.664 249.212 140.295 254.324 135.843C259.453 131.375 261.072 127.532 261.072 124.54C261.072 121.548 259.453 117.705 254.324 113.237C249.212 108.786 241.358 104.416 230.966 100.587C226.5 98.9419 221.643 97.4247 216.445 96.0566C212.595 104.88 207.867 114.119 202.329 123.534C208.675 133.455 214.072 143.206 218.423 152.491ZM197.727 131.101C202.7 139.118 207.003 146.965 210.588 154.468C200.56 156.782 189.434 158.562 177.524 159.677C179.784 156.816 182.025 153.882 184.238 150.878C189.097 144.284 193.601 137.666 197.727 131.101ZM192.981 123.709C188.175 116.467 182.846 109.131 177.027 101.824C173.348 97.203 169.613 92.7703 165.852 88.5412C160.201 88.2332 154.407 88.0729 148.5 88.0729C142.31 88.0729 136.243 88.249 130.335 88.5866C126.558 93.1426 122.817 97.9218 119.144 102.905C113.602 110.425 108.551 117.955 104.019 125.371C108.825 132.613 114.154 139.949 119.972 147.256C123.652 151.877 127.387 156.31 131.148 160.539C136.799 160.847 142.593 161.007 148.5 161.007C154.691 161.007 160.757 160.831 166.666 160.493C170.443 155.937 174.184 151.158 177.856 146.175C183.398 138.656 188.449 131.125 192.981 123.709ZM197.447 116.145C193.079 109.739 188.331 103.293 183.229 96.8854C181.188 94.3218 179.128 91.8122 177.053 89.3592C188.364 90.3994 198.973 92.0399 208.615 94.167C205.475 101.237 201.741 108.608 197.447 116.145ZM119.946 159.721C117.872 157.268 115.812 154.758 113.771 152.195C108.668 145.787 103.921 139.341 99.5529 132.935C95.2587 140.472 91.5255 147.843 88.3855 154.913C98.0266 157.04 108.636 158.681 119.946 159.721ZM99.2734 117.98C103.399 111.415 107.903 104.796 112.762 98.202C114.976 95.1986 117.216 92.2641 119.476 89.4028C107.566 90.5176 96.44 92.2985 86.4116 94.6124C89.9964 102.115 94.2997 109.962 99.2734 117.98ZM78.5767 96.589C82.928 105.875 88.3253 115.625 94.6709 125.546C89.133 134.961 84.4048 144.2 80.5556 153.024C75.3569 151.655 70.4997 150.138 66.0343 148.493C55.6423 144.664 47.7875 140.295 42.6765 135.843C37.547 131.375 35.9276 127.532 35.9276 124.54C35.9276 121.548 37.547 117.705 42.6765 113.237C47.7875 108.786 55.6423 104.416 66.0343 100.587C69.9283 99.1524 74.1202 97.815 78.5767 96.589ZM127.427 168.258C132.868 174.249 138.368 179.838 143.849 184.978C135.251 193.111 126.796 199.904 118.858 205.136C109.611 211.23 101.433 214.961 94.8167 216.434C88.1769 217.912 84.1228 216.936 81.7142 215.161C79.3057 213.386 77.1731 209.803 76.6195 203.023C76.0679 196.267 77.2102 187.352 80.2934 176.715C81.6182 172.144 83.2784 167.334 85.2614 162.337C97.9461 165.224 112.193 167.268 127.427 168.258ZM149.526 179.433C145.948 176.087 142.353 172.536 138.765 168.792C141.976 168.887 145.223 168.935 148.5 168.935C152.231 168.935 155.922 168.872 159.567 168.75C156.225 172.496 152.871 176.061 149.526 179.433ZM155.405 184.762C160.476 179.638 165.548 174.1 170.556 168.193C186.298 167.12 200.967 164.92 213.923 161.828C215.74 166.078 217.305 170.19 218.608 174.13C222.086 184.645 223.561 193.511 223.262 200.283C222.962 207.079 220.965 210.739 218.624 212.603C216.284 214.467 212.269 215.594 205.578 214.364C198.912 213.139 190.601 209.717 181.132 203.972C173.004 199.041 164.301 192.569 155.405 184.762Z" fill="#298A90"/>
<path d="M153.235 75.2C155.725 74.1039 157.787 72.2142 159.1 69.8513C167.248 77.9613 175.377 87.0244 183.229 96.8854C195.696 112.542 206.047 128.427 213.906 143.402C211.103 143.607 208.558 144.744 206.579 146.503C199.03 132.215 189.078 116.957 177.027 101.824C169.253 92.0609 161.233 83.1379 153.235 75.2Z" fill="#71D7BE"/>
<path d="M216.46 168.102C219.232 167.738 221.717 166.46 223.6 164.58C233.39 189.947 234.155 210.37 223.563 218.805C210.684 229.06 184.291 218.984 155.789 195.496C158.238 194.301 160.235 192.325 161.456 189.892C168.24 195.44 174.857 200.165 181.132 203.972C190.601 209.717 198.912 213.139 205.578 214.364C212.269 215.594 216.284 214.467 218.624 212.603C220.965 210.739 222.962 207.079 223.262 200.283C223.561 193.511 222.086 184.645 218.608 174.13C217.957 172.162 217.241 170.151 216.46 168.102Z" fill="#71D7BE"/>
<path d="M202.414 156.188C202.505 159.044 203.559 161.656 205.263 163.711C188.349 167.044 169.024 168.935 148.5 168.935C125.307 168.935 103.644 166.521 85.2614 162.337C83.2784 167.334 81.6182 172.144 80.2934 176.715C77.2102 187.352 76.0679 196.267 76.6195 203.023C76.6696 203.636 76.7326 204.224 76.8075 204.786C73.9116 205.174 71.3316 206.56 69.425 208.586C64.4662 185.37 81.0341 141.254 112.762 98.202C120.596 87.5721 128.766 77.8057 136.984 69.0924C138.137 71.5519 140.072 73.5715 142.47 74.8305C134.592 83.2082 126.723 92.6219 119.144 102.905C106.005 120.734 95.6205 138.623 88.3855 154.913C105.791 158.753 126.353 161.007 148.5 161.007C168.071 161.007 186.403 159.247 202.414 156.188Z" fill="#71D7BE"/>
<path d="M87.9978 225.066C102.386 225.538 122.934 214.446 144.408 195.236C142.036 193.942 140.134 191.897 139.019 189.42C132.091 195.61 125.304 200.888 118.858 205.136C109.611 211.23 101.433 214.961 94.8167 216.434C93.3929 216.751 92.0878 216.955 90.8925 217.063C90.8925 217.073 90.8925 217.084 90.8925 217.095C90.8925 220.129 89.8047 222.909 87.9978 225.066Z" fill="#71D7BE"/>
<path d="M41.5287 144.998C44.8855 147.375 48.8092 149.627 53.2337 151.728L41.5287 144.998Z" fill="#71D7BE"/>
<path d="M164.884 124.342C164.884 132.223 158.495 138.611 150.614 138.611C142.733 138.611 136.344 132.223 136.344 124.342C136.344 116.461 142.733 110.072 150.614 110.072C158.495 110.072 164.884 116.461 164.884 124.342Z" fill="#71D7BE"/>
<path d="M156.956 64.29C156.956 68.9602 153.17 72.7462 148.5 72.7462C143.83 72.7462 140.044 68.9602 140.044 64.29C140.044 59.6198 143.83 55.8339 148.5 55.8339C153.17 55.8339 156.956 59.6198 156.956 64.29Z" fill="#71D7BE"/>
<path d="M159.07 184.592C159.07 189.262 155.284 193.048 150.614 193.048C145.944 193.048 142.158 189.262 142.158 184.592C142.158 179.921 145.944 176.135 150.614 176.135C155.284 176.135 159.07 179.921 159.07 184.592Z" fill="#71D7BE"/>
<path d="M223.548 156.251C223.548 160.921 219.762 164.707 215.092 164.707C210.422 164.707 206.636 160.921 206.636 156.251C206.636 151.58 210.422 147.794 215.092 147.794C219.762 147.794 223.548 151.58 223.548 156.251Z" fill="#71D7BE"/>
<path d="M87.193 217.558C87.193 222.228 83.407 226.014 78.7368 226.014C74.0666 226.014 70.2807 222.228 70.2807 217.558C70.2807 212.887 74.0666 209.102 78.7368 209.102C83.407 209.102 87.193 212.887 87.193 217.558Z" fill="#71D7BE"/>
</svg>
