<svg width="250" height="250" viewBox="0 0 250 250" fill="none" xmlns="http://www.w3.org/2000/svg">
<path d="M91 22.2634L101.782 15L167.711 112.864L156.929 120.127L91 22.2634Z" fill="#298A90"/>
<path d="M158 121.047L169.98 116L215.795 224.743L203.815 229.79L158 121.047Z" fill="#298A90"/>
<path d="M173.887 120L174.456 132.988L56.5697 138.159L56 125.171L173.887 120Z" fill="#298A90"/>
<path d="M42.6776 240.951L30 238.073L56.1176 123L68.7952 125.877L42.6776 240.951Z" fill="#298A90"/>
<path d="M115 26C115 34.8366 107.837 42 99 42C90.1634 42 83 34.8366 83 26C83 17.1634 90.1634 10 99 10C107.837 10 115 17.1634 115 26Z" fill="#71D7BE"/>
<path d="M78 131C78 139.837 70.8366 147 62 147C53.1634 147 46 139.837 46 131C46 122.163 53.1634 115 62 115C70.8366 115 78 122.163 78 131Z" fill="#71D7BE"/>
<path d="M184 126C184 134.837 176.837 142 168 142C159.163 142 152 134.837 152 126C152 117.163 159.163 110 168 110C176.837 110 184 117.163 184 126Z" fill="#71D7BE"/>
<path d="M56 225C56 233.837 48.8366 241 40 241C31.1634 241 24 233.837 24 225C24 216.163 31.1634 209 40 209C48.8366 209 56 216.163 56 225Z" fill="#71D7BE"/>
<path d="M226 225C226 233.837 218.837 241 210 241C201.163 241 194 233.837 194 225C194 216.163 201.163 209 210 209C218.837 209 226 216.163 226 225Z" fill="#71D7BE"/>
</svg>
