<svg width="250" height="251" viewBox="0 0 250 251" fill="none" xmlns="http://www.w3.org/2000/svg">
<path fill-rule="evenodd" clip-rule="evenodd" d="M123.271 58.753C92.5001 31.6189 63.2245 19.2965 49.4372 30.2753C38.1893 39.232 39.7476 61.7082 51.3211 89.2665C22.5534 97.3797 4 110.162 4 124.54C4 139.278 23.4932 152.339 53.4989 160.414C42.1976 189.359 41.1468 212.799 53.011 221.543C67.1987 231.999 95.9935 218.592 125.729 190.327C156.5 217.461 185.775 229.784 199.563 218.805C210.811 209.848 209.252 187.372 197.679 159.814C226.447 151.7 245 138.919 245 124.54C245 109.802 225.507 96.7413 195.501 88.6666C206.803 59.7214 207.853 36.2809 195.989 27.5372C181.801 17.0811 153.007 30.4885 123.271 58.753ZM196.381 46.0573C195.827 39.2774 193.694 35.694 191.286 33.919C188.877 32.1439 184.823 31.1678 178.183 32.6463C171.567 34.1195 163.39 37.8502 154.142 43.9443C146.204 49.176 137.749 55.9688 129.151 64.1024C134.632 69.2424 140.132 74.8314 145.573 80.8219C160.807 81.8118 175.054 83.8561 187.739 86.7429C189.722 81.7463 191.382 76.9362 192.707 72.3655C195.79 61.7286 196.932 52.8129 196.381 46.0573ZM134.234 80.2881C130.646 76.5446 127.052 72.9934 123.474 69.6476C120.129 73.0191 116.775 76.5842 113.433 80.33C117.078 80.2078 120.769 80.1453 124.5 80.1453C127.777 80.1453 131.023 80.1935 134.234 80.2881ZM117.595 64.3183C108.699 56.5115 99.9962 50.0392 91.8677 45.1078C82.3993 39.3633 74.0879 35.9407 67.4214 34.7157C60.731 33.4863 56.7161 34.6132 54.3756 36.4769C52.035 38.3407 50.0378 42.0012 49.7378 48.7971C49.439 55.5686 50.9135 64.4353 54.3919 74.9497C55.6953 78.8896 57.2603 83.002 59.0773 87.2519C72.0331 84.1602 86.7021 81.96 102.445 80.8873C107.452 74.9803 112.524 69.4425 117.595 64.3183ZM194.423 152.491C198.88 151.265 203.072 149.928 206.966 148.493C217.358 144.664 225.212 140.295 230.324 135.843C235.453 131.375 237.072 127.532 237.072 124.54C237.072 121.548 235.453 117.705 230.324 113.237C225.212 108.786 217.358 104.416 206.966 100.587C202.5 98.9419 197.643 97.4247 192.445 96.0566C188.595 104.88 183.867 114.119 178.329 123.534C184.675 133.455 190.072 143.206 194.423 152.491ZM173.727 131.101C178.7 139.118 183.003 146.965 186.588 154.468C176.56 156.782 165.434 158.562 153.524 159.677C155.784 156.816 158.025 153.882 160.238 150.878C165.097 144.284 169.601 137.666 173.727 131.101ZM168.981 123.709C164.175 116.467 158.846 109.131 153.027 101.824C149.348 97.203 145.613 92.7703 141.852 88.5412C136.201 88.2332 130.407 88.0729 124.5 88.0729C118.31 88.0729 112.243 88.249 106.335 88.5866C102.558 93.1426 98.8166 97.9218 95.144 102.905C89.6023 110.425 84.5507 117.955 80.0188 125.371C84.8245 132.613 90.1538 139.949 95.9724 147.256C99.6519 151.877 103.387 156.31 107.148 160.539C112.799 160.847 118.593 161.007 124.5 161.007C130.691 161.007 136.757 160.831 142.666 160.493C146.443 155.937 150.184 151.158 153.856 146.175C159.398 138.656 164.449 131.125 168.981 123.709ZM173.447 116.145C169.079 109.739 164.331 103.293 159.229 96.8854C157.188 94.3218 155.128 91.8122 153.053 89.3592C164.364 90.3994 174.973 92.0399 184.615 94.167C181.475 101.237 177.741 108.608 173.447 116.145ZM95.9463 159.721C93.8722 157.268 91.8121 154.758 89.7708 152.195C84.6684 145.787 79.9205 139.341 75.5529 132.935C71.2587 140.472 67.5255 147.843 64.3855 154.913C74.0266 157.04 84.6358 158.681 95.9463 159.721ZM75.2734 117.98C79.3988 111.415 83.9027 104.796 88.7622 98.202C90.9757 95.1986 93.2159 92.2641 95.4765 89.4028C83.566 90.5176 72.44 92.2985 62.4116 94.6124C65.9964 102.115 70.2997 109.962 75.2734 117.98ZM54.5767 96.589C58.928 105.875 64.3253 115.625 70.6709 125.546C65.133 134.961 60.4048 144.2 56.5556 153.024C51.3569 151.655 46.4997 150.138 42.0343 148.493C31.6423 144.664 23.7875 140.295 18.6765 135.843C13.547 131.375 11.9276 127.532 11.9276 124.54C11.9276 121.548 13.547 117.705 18.6765 113.237C23.7875 108.786 31.6423 104.416 42.0343 100.587C45.9283 99.1524 50.1202 97.815 54.5767 96.589ZM103.427 168.258C108.868 174.249 114.368 179.838 119.849 184.978C111.251 193.111 102.796 199.904 94.8578 205.136C85.6106 211.23 77.4328 214.961 70.8167 216.434C64.1769 217.912 60.1228 216.936 57.7142 215.161C55.3057 213.386 53.1731 209.803 52.6195 203.023C52.0679 196.267 53.2102 187.352 56.2934 176.715C57.6182 172.144 59.2784 167.334 61.2614 162.337C73.9461 165.224 88.193 167.268 103.427 168.258ZM125.526 179.433C121.948 176.087 118.353 172.536 114.765 168.792C117.976 168.887 121.223 168.935 124.5 168.935C128.231 168.935 131.922 168.872 135.567 168.75C132.225 172.496 128.871 176.061 125.526 179.433ZM131.405 184.762C136.476 179.638 141.548 174.1 146.556 168.193C162.298 167.12 176.967 164.92 189.923 161.828C191.74 166.078 193.305 170.19 194.608 174.13C198.086 184.645 199.561 193.511 199.262 200.283C198.962 207.079 196.965 210.739 194.624 212.603C192.284 214.467 188.269 215.594 181.578 214.364C174.912 213.139 166.601 209.717 157.132 203.972C149.004 199.041 140.301 192.569 131.405 184.762Z" fill="#298A90"/>
<path d="M129.235 75.2C131.725 74.1039 133.787 72.2142 135.1 69.8513C143.248 77.9613 151.377 87.0244 159.229 96.8854C171.696 112.542 182.047 128.427 189.906 143.402C187.103 143.607 184.558 144.744 182.579 146.503C175.03 132.215 165.078 116.957 153.027 101.824C145.253 92.0609 137.233 83.1379 129.235 75.2Z" fill="#71D7BE"/>
<path d="M192.46 168.102C195.232 167.738 197.717 166.46 199.6 164.58C209.39 189.947 210.155 210.37 199.563 218.805C186.684 229.06 160.291 218.984 131.789 195.496C134.238 194.301 136.235 192.325 137.456 189.892C144.24 195.44 150.857 200.165 157.132 203.972C166.601 209.717 174.912 213.139 181.578 214.364C188.269 215.594 192.284 214.467 194.624 212.603C196.965 210.739 198.962 207.079 199.262 200.283C199.561 193.511 198.086 184.645 194.608 174.13C193.957 172.162 193.241 170.151 192.46 168.102Z" fill="#71D7BE"/>
<path d="M178.414 156.188C178.505 159.044 179.559 161.656 181.263 163.711C164.349 167.044 145.024 168.935 124.5 168.935C101.307 168.935 79.6436 166.521 61.2614 162.337C59.2784 167.334 57.6182 172.144 56.2934 176.715C53.2102 187.352 52.0679 196.267 52.6195 203.023C52.6696 203.636 52.7326 204.224 52.8075 204.786C49.9116 205.174 47.3316 206.56 45.425 208.586C40.4662 185.37 57.0341 141.254 88.7622 98.202C96.5962 87.5721 104.766 77.8057 112.984 69.0924C114.137 71.5519 116.072 73.5715 118.47 74.8305C110.592 83.2082 102.723 92.6219 95.144 102.905C82.0045 120.734 71.6205 138.623 64.3855 154.913C81.7915 158.753 102.353 161.007 124.5 161.007C144.071 161.007 162.403 159.247 178.414 156.188Z" fill="#71D7BE"/>
<path d="M63.9978 225.066C78.3863 225.538 98.9336 214.446 120.408 195.236C118.036 193.942 116.134 191.897 115.019 189.42C108.091 195.61 101.304 200.888 94.8578 205.136C85.6106 211.23 77.4328 214.961 70.8167 216.434C69.3929 216.751 68.0878 216.955 66.8925 217.063C66.8925 217.073 66.8925 217.084 66.8925 217.095C66.8925 220.129 65.8047 222.909 63.9978 225.066Z" fill="#71D7BE"/>
<path d="M17.5287 144.998C20.8855 147.375 24.8092 149.627 29.2337 151.728L17.5287 144.998Z" fill="#71D7BE"/>
<path d="M140.884 124.342C140.884 132.223 134.495 138.611 126.614 138.611C118.733 138.611 112.344 132.223 112.344 124.342C112.344 116.461 118.733 110.072 126.614 110.072C134.495 110.072 140.884 116.461 140.884 124.342Z" fill="#71D7BE"/>
<path d="M132.956 64.29C132.956 68.9602 129.17 72.7462 124.5 72.7462C119.83 72.7462 116.044 68.9602 116.044 64.29C116.044 59.6198 119.83 55.8339 124.5 55.8339C129.17 55.8339 132.956 59.6198 132.956 64.29Z" fill="#71D7BE"/>
<path d="M135.07 184.592C135.07 189.262 131.284 193.048 126.614 193.048C121.944 193.048 118.158 189.262 118.158 184.592C118.158 179.921 121.944 176.135 126.614 176.135C131.284 176.135 135.07 179.921 135.07 184.592Z" fill="#71D7BE"/>
<path d="M199.548 156.251C199.548 160.921 195.762 164.707 191.092 164.707C186.422 164.707 182.636 160.921 182.636 156.251C182.636 151.58 186.422 147.794 191.092 147.794C195.762 147.794 199.548 151.58 199.548 156.251Z" fill="#71D7BE"/>
<path d="M63.193 217.558C63.193 222.228 59.407 226.014 54.7368 226.014C50.0666 226.014 46.2807 222.228 46.2807 217.558C46.2807 212.887 50.0666 209.102 54.7368 209.102C59.407 209.102 63.193 212.887 63.193 217.558Z" fill="#71D7BE"/>
</svg>
